# xmcd CD database file
#
# Track frame offsets:
#	150
#	16802
#	33636
#	45005
#	57378
#	69393
#	83148
#	102424
#	114281
#	129698
#	144131
#	156883
#	172730
#	185431
#
# Disc length: 2650 seconds
#
# Revision: 0
# Processed by: cddbd v1.5.2PL0 Copyright (c) Steve Scherf et al.
# Submitted via: ACXtractor (MTCDDB.DLL V2003.07.15)
#
DISCID=a90a580e
DTITLE=Don Costa - The Fire Still Burns
DYEAR=2015
DGENRE=Country
TTITLE0=Wagon Wheel
TTITLE1=I Love This Bar
TTITLE2=Little Bitty
TTITLE3=When You Walk in the Room
TTITLE4=Big River
TTITLE5=Chasin that Neon Rainbow
TTITLE6=Go Rest High on that Mountain
TTITLE7=A Fool Such as I
TTITLE8=Tonight we Might Fall in Love Again
TTITLE9=It's Five O'Clock Somewhere
TTITLE10=Rockin Roll in a Cowboy Hat
TTITLE11=Write This Down
TTITLE12=Small Town Saturday Night
TTITLE13=Lonely Boy
EXTD=ID3G:   2 YEAR: 2015
EXTT0=
EXTT1=
EXTT2=
EXTT3=
EXTT4=
EXTT5=
EXTT6=
EXTT7=
EXTT8=
EXTT9=
EXTT10=
EXTT11=
EXTT12=
EXTT13=
PLAYORDER=
